<svg xmlns="http://www.w3.org/2000/svg" xmlns:xlink="http://www.w3.org/1999/xlink" preserveAspectRatio="xMidYMid" width="19" height="14" viewBox="0 0 19 14">
  <defs>
    <style>

      .cls-2 {
        fill: #f16334;
      }
    </style>
  </defs>
  <path d="M8.394,13.233 C7.553,14.076 6.187,14.076 5.346,13.233 C5.346,13.233 0.622,8.503 0.622,8.503 C-0.219,7.660 -0.219,6.291 0.622,5.448 C1.464,4.605 2.829,4.605 3.671,5.448 C3.671,5.448 6.485,8.268 6.485,8.268 C6.698,8.480 7.043,8.480 7.255,8.268 C7.255,8.268 14.876,0.636 14.876,0.636 C15.717,-0.208 17.083,-0.208 17.924,0.636 C18.329,1.038 18.556,1.588 18.556,2.161 C18.556,2.734 18.329,3.283 17.924,3.687 C17.924,3.687 8.394,13.233 8.394,13.233 Z" id="path-1" class="cls-2" fill-rule="evenodd"/>
</svg>
